<svg version="1.1" id="Layer_1" xmlns="http://www.w3.org/2000/svg" xmlns:xlink="http://www.w3.org/1999/xlink" x="0px" y="0px"
	 width="100%" viewBox="0 0 512 512" enable-background="new 0 0 512 512" xml:space="preserve">
<path fill="#000000" opacity="1.000000" stroke="none" 
	d="
M344.000000,513.000000 
	C229.361191,513.000000 115.222374,513.000000 1.041779,513.000000 
	C1.041779,342.402832 1.041779,171.805649 1.041779,1.104233 
	C171.555481,1.104233 342.111053,1.104233 512.833313,1.104233 
	C512.833313,171.666534 512.833313,342.333252 512.833313,513.000000 
	C456.805573,513.000000 400.652802,513.000000 344.000000,513.000000 
M407.717072,194.555405 
	C407.816589,184.836060 407.931793,175.116760 407.971802,165.397171 
	C407.973938,164.882278 407.340698,164.364746 407.069275,162.987976 
	C405.202240,141.229248 398.172791,121.221489 386.552673,102.795647 
	C378.241638,89.616936 368.158386,78.085609 355.313202,69.062996 
	C341.385620,59.280106 326.110016,52.638084 309.456512,49.343815 
	C294.212158,46.328289 278.493286,44.162590 263.729431,49.624695 
	C254.141922,53.171730 245.433151,55.511467 235.687103,51.999004 
	C234.762589,51.665817 233.750000,51.478477 232.766846,51.421577 
	C219.812759,50.671894 206.638153,49.300877 194.960922,56.651211 
	C188.995880,60.405972 183.368408,64.907387 178.312347,69.816910 
	C175.281174,72.760223 173.958099,77.380844 171.316605,80.825249 
	C166.652206,86.907425 164.477112,93.806801 164.061371,101.229286 
	C163.114853,118.128387 167.178406,133.463028 178.793472,146.739853 
	C176.641708,148.560715 174.489960,150.381561 171.744522,151.800049 
	C168.990631,148.513641 165.883484,145.458267 163.553024,141.894943 
	C157.910889,133.267990 155.379517,123.489952 154.065903,113.373360 
	C153.643692,110.121735 152.482040,109.158554 149.577789,111.326187 
	C144.316666,115.252907 138.590057,118.645157 133.745453,123.021759 
	C124.177727,131.665237 115.980095,141.640671 113.995148,154.810211 
	C112.275070,166.222382 111.580711,177.830109 111.130043,189.378616 
	C110.814293,197.469559 112.304199,205.640930 111.861794,213.714706 
	C111.133003,227.014755 113.982979,238.692886 123.811569,248.694336 
	C122.976501,249.874390 122.135567,251.050339 121.307320,252.235184 
	C116.613029,258.950562 114.275406,266.670807 116.365776,274.399689 
	C120.902351,291.173157 124.455765,308.130920 128.229065,325.068848 
	C130.603607,335.727936 135.393372,345.749817 147.914536,349.370880 
	C151.883972,362.636261 155.381210,376.066223 159.933914,389.128296 
	C166.696884,408.531677 177.680252,425.245087 194.311325,437.762756 
	C208.679855,448.577484 224.743820,455.059418 243.340820,456.737213 
	C251.747238,456.840973 260.153564,456.975189 268.560211,457.001312 
	C269.398132,457.003937 270.238129,456.348511 271.969238,456.039703 
	C299.762177,454.738922 321.810455,442.535919 338.663239,420.672882 
	C357.637756,396.057343 366.936157,367.652893 371.819611,337.032593 
	C379.592346,336.931091 385.486572,333.909363 390.371155,327.480774 
	C397.085236,318.644440 399.619263,308.400696 401.894745,298.075989 
	C404.673553,285.467407 406.610626,272.674713 408.991852,259.976685 
	C410.851929,250.057800 407.180725,245.396652 397.020111,244.965073 
	C396.695892,244.951309 396.376984,244.812042 396.413910,244.166565 
	C404.340546,228.741364 406.012573,211.968216 407.717072,194.555405 
z"/>
<path fill="#2A2A2A" opacity="1.000000" stroke="none" 
	d="
M242.856339,455.995605 
	C224.743820,455.059418 208.679855,448.577484 194.311325,437.762756 
	C177.680252,425.245087 166.696884,408.531677 159.933914,389.128296 
	C155.381210,376.066223 151.883972,362.636261 147.886719,348.619049 
	C143.209137,322.712738 139.298019,297.425873 140.116104,271.781799 
	C140.513641,259.321350 132.053207,254.102524 124.010674,248.013474 
	C113.982979,238.692886 111.133003,227.014755 111.861794,213.714706 
	C112.304199,205.640930 110.814293,197.469559 111.130043,189.378616 
	C111.580711,177.830109 112.275070,166.222382 113.995148,154.810211 
	C115.980095,141.640671 124.177727,131.665237 133.745453,123.021759 
	C138.590057,118.645157 144.316666,115.252907 149.577789,111.326187 
	C152.482040,109.158554 153.643692,110.121735 154.065903,113.373360 
	C155.379517,123.489952 157.910889,133.267990 163.553024,141.894943 
	C165.883484,145.458267 168.990631,148.513641 172.020142,152.361237 
	C169.715469,158.267105 165.789230,163.375153 164.800476,168.999619 
	C161.478149,187.898392 159.202576,206.981171 156.477905,226.338242 
	C160.703613,224.197479 163.767975,222.136658 167.144424,221.016891 
	C189.483444,213.608292 212.060379,212.594025 235.004913,218.368286 
	C248.893570,221.863510 263.164612,222.469238 277.085785,219.107635 
	C304.829987,212.408157 331.719025,213.828812 358.194458,225.439926 
	C356.885590,211.280899 355.081177,197.194458 349.557587,184.067230 
	C337.550201,155.530884 316.108978,138.118286 285.227783,134.875793 
	C265.084808,132.760803 244.637741,133.620102 224.334396,132.927216 
	C210.611557,132.458893 198.089844,136.375885 186.073166,142.507339 
	C183.733231,143.701263 181.404617,144.917419 179.070770,146.123306 
	C167.178406,133.463028 163.114853,118.128387 164.061371,101.229286 
	C164.477112,93.806801 166.652206,86.907425 171.316605,80.825249 
	C173.958099,77.380844 175.281174,72.760223 178.312347,69.816910 
	C183.368408,64.907387 188.995880,60.405972 194.960922,56.651211 
	C206.638153,49.300877 219.812759,50.671894 232.766846,51.421577 
	C233.750000,51.478477 234.762589,51.665817 235.687103,51.999004 
	C245.433151,55.511467 254.141922,53.171730 263.729431,49.624695 
	C278.493286,44.162590 294.212158,46.328289 309.456512,49.343815 
	C326.110016,52.638084 341.385620,59.280106 355.313202,69.062996 
	C368.158386,78.085609 378.241638,89.616936 386.552673,102.795647 
	C398.172791,121.221489 405.202240,141.229248 407.001099,163.896454 
	C406.955200,174.885773 406.977509,184.966614 406.999817,195.047470 
	C406.012573,211.968216 404.340546,228.741364 395.888184,244.544968 
	C392.264221,250.928925 388.140930,256.634613 386.278290,263.001678 
	C382.242615,276.796967 379.040497,290.863647 376.117340,304.947968 
	C373.905273,315.605988 372.653046,326.463226 370.973663,337.231812 
	C366.936157,367.652893 357.637756,396.057343 338.663239,420.672882 
	C321.810455,442.535919 299.762177,454.738922 271.049988,455.988220 
	C261.039246,455.956360 251.947800,455.975983 242.856339,455.995605 
M259.570496,310.877747 
	C267.891418,310.983704 276.214996,311.274567 284.532684,311.155396 
	C299.712555,310.937958 311.938080,316.800842 321.578247,328.398010 
	C325.700867,333.357513 329.928345,338.229858 334.114655,343.149475 
	C351.831604,325.812714 361.351776,286.855560 359.358887,264.770905 
	C355.808105,276.666534 348.667023,284.573212 337.323395,288.553650 
	C310.446106,297.984894 282.048035,286.041504 270.138031,260.274384 
	C268.072754,255.806122 265.875519,251.398819 263.739227,246.963348 
	C263.355133,247.007660 262.971069,247.051971 262.587006,247.096283 
	C258.165100,268.128021 253.743210,289.159760 249.177032,310.877686 
	C252.702942,310.877686 255.652756,310.877686 259.570496,310.877747 
M191.207397,334.704285 
	C196.966537,329.676086 202.546448,324.421600 208.532745,319.680176 
	C215.179642,314.415558 222.723587,311.060730 231.464050,311.182922 
	C233.763290,311.215057 236.063354,311.187775 238.630508,311.187775 
	C242.973053,290.444092 247.225052,270.132996 251.477036,249.821869 
	C250.999710,249.663162 250.522385,249.504471 250.045059,249.345764 
	C248.133286,252.933090 245.928970,256.397339 244.359070,260.128479 
	C236.474869,278.866882 222.120255,288.274780 202.236557,290.543304 
	C180.035675,293.076202 163.999542,283.282318 156.862915,262.220581 
	C156.810440,262.065704 156.438889,262.018921 156.214890,261.924927 
	C154.812515,295.651276 163.626495,324.669861 181.551849,344.975647 
	C184.613678,341.711884 187.661774,338.462769 191.207397,334.704285 
M291.727783,272.852173 
	C304.270721,281.157196 317.899658,282.832062 332.292877,279.300354 
	C341.795166,276.968719 347.990051,270.648071 349.551300,261.286255 
	C350.928650,253.026962 350.590332,244.447357 350.518524,236.013367 
	C350.506165,234.558502 348.283752,232.291977 346.669647,231.824295 
	C339.506531,229.748871 332.262787,227.779053 324.918427,226.540695 
	C312.697144,224.480011 300.386505,224.435043 288.186798,227.014786 
	C278.394745,229.085373 275.138855,233.905426 276.454956,243.820984 
	C277.953979,255.114899 282.414368,264.854218 291.727783,272.852173 
M166.029602,235.836365 
	C166.356049,244.087982 165.973801,252.447113 167.204895,260.561493 
	C168.478729,268.957458 174.032898,274.715485 182.057663,277.926025 
	C208.161179,288.369507 236.707108,270.130829 238.073898,242.098602 
	C238.522598,232.896164 235.717484,228.918533 226.667191,227.007721 
	C207.334595,222.925980 188.317780,224.584702 169.718735,231.005920 
	C168.231583,231.519363 167.293732,233.623856 166.029602,235.836365 
M248.916412,382.619843 
	C272.579346,384.067352 292.783661,376.951935 308.774170,358.883850 
	C311.712036,355.564240 311.791077,352.975189 308.213837,350.836121 
	C303.434631,347.978241 298.561890,344.060028 293.353516,343.348663 
	C271.507904,340.365173 249.470825,340.476166 227.611053,343.261688 
	C215.855194,344.759766 205.783783,350.149139 199.870544,361.395020 
	C200.340225,362.046783 200.672043,362.627258 201.118057,363.099976 
	C201.916656,363.946381 202.757889,364.757172 203.626617,365.532074 
	C216.268433,376.808533 231.580566,381.112732 248.916412,382.619843 
M382.182495,249.834671 
	C383.346832,247.888611 384.511139,245.942535 385.819641,243.755508 
	C377.090088,238.383240 368.707611,233.224548 360.315338,228.059830 
	C359.314850,237.042038 362.322479,243.166779 370.662231,246.379913 
	C373.562225,247.497208 376.027588,249.702194 378.839935,251.114777 
	C379.569031,251.480988 380.858276,250.731979 382.182495,249.834671 
M140.542816,246.969482 
	C142.656540,249.583267 144.770264,252.197052 146.490036,254.323669 
	C157.196014,248.664719 155.029144,239.021317 156.623291,229.159286 
	C150.771606,235.621658 145.880417,241.023300 140.542816,246.969482 
z"/>
<path fill="#F7D6B9" opacity="1.000000" stroke="none" 
	d="
M178.932129,146.431580 
	C181.404617,144.917419 183.733231,143.701263 186.073166,142.507339 
	C198.089844,136.375885 210.611557,132.458893 224.334396,132.927216 
	C244.637741,133.620102 265.084808,132.760803 285.227783,134.875793 
	C316.108978,138.118286 337.550201,155.530884 349.557587,184.067230 
	C355.081177,197.194458 356.885590,211.280899 358.194458,225.439926 
	C331.719025,213.828812 304.829987,212.408157 277.085785,219.107635 
	C263.164612,222.469238 248.893570,221.863510 235.004913,218.368286 
	C212.060379,212.594025 189.483444,213.608292 167.144424,221.016891 
	C163.767975,222.136658 160.703613,224.197479 156.477905,226.338242 
	C159.202576,206.981171 161.478149,187.898392 164.800476,168.999619 
	C165.789230,163.375153 169.715469,158.267105 172.316986,152.562424 
	C174.489960,150.381561 176.641708,148.560715 178.932129,146.431580 
z"/>
<path fill="#F1CDAE" opacity="1.000000" stroke="none" 
	d="
M371.396637,337.132202 
	C372.653046,326.463226 373.905273,315.605988 376.117340,304.947968 
	C379.040497,290.863647 382.242615,276.796967 386.278290,263.001678 
	C388.140930,256.634613 392.264221,250.928925 395.709045,244.827332 
	C396.376984,244.812042 396.695892,244.951309 397.020111,244.965073 
	C407.180725,245.396652 410.851929,250.057800 408.991852,259.976685 
	C406.610626,272.674713 404.673553,285.467407 401.894745,298.075989 
	C399.619263,308.400696 397.085236,318.644440 390.371155,327.480774 
	C385.486572,333.909363 379.592346,336.931091 371.396637,337.132202 
z"/>
<path fill="#F1CDAE" opacity="1.000000" stroke="none" 
	d="
M123.911118,248.353912 
	C132.053207,254.102524 140.513641,259.321350 140.116104,271.781799 
	C139.298019,297.425873 143.209137,322.712738 147.864075,348.259399 
	C135.393372,345.749817 130.603607,335.727936 128.229065,325.068848 
	C124.455765,308.130920 120.902351,291.173157 116.365776,274.399689 
	C114.275406,266.670807 116.613029,258.950562 121.307320,252.235184 
	C122.135567,251.050339 122.976501,249.874390 123.911118,248.353912 
z"/>
<path fill="#73685C" opacity="1.000000" stroke="none" 
	d="
M407.358459,194.801437 
	C406.977509,184.966614 406.955200,174.885773 406.968079,164.326691 
	C407.340698,164.364746 407.973938,164.882278 407.971802,165.397171 
	C407.931793,175.116760 407.816589,184.836060 407.358459,194.801437 
z"/>
<path fill="#71655B" opacity="1.000000" stroke="none" 
	d="
M243.098572,456.366394 
	C251.947800,455.975983 261.039246,455.956360 270.603943,455.967590 
	C270.238129,456.348511 269.398132,457.003937 268.560211,457.001312 
	C260.153564,456.975189 251.747238,456.840973 243.098572,456.366394 
z"/>
<path fill="#F6D5B8" opacity="1.000000" stroke="none" 
	d="
M259.086548,310.877716 
	C255.652756,310.877686 252.702942,310.877686 249.177032,310.877686 
	C253.743210,289.159760 258.165100,268.128021 262.587006,247.096283 
	C262.971069,247.051971 263.355133,247.007660 263.739227,246.963348 
	C265.875519,251.398819 268.072754,255.806122 270.138031,260.274384 
	C282.048035,286.041504 310.446106,297.984894 337.323395,288.553650 
	C348.667023,284.573212 355.808105,276.666534 359.358887,264.770905 
	C361.351776,286.855560 351.831604,325.812714 334.114655,343.149475 
	C329.928345,338.229858 325.700867,333.357513 321.578247,328.398010 
	C311.938080,316.800842 299.712555,310.937958 284.532684,311.155396 
	C276.214996,311.274567 267.891418,310.983704 259.086548,310.877716 
z"/>
<path fill="#F6D5B8" opacity="1.000000" stroke="none" 
	d="
M190.958633,334.958984 
	C187.661774,338.462769 184.613678,341.711884 181.551849,344.975647 
	C163.626495,324.669861 154.812515,295.651276 156.215607,261.923279 
	C156.438889,262.018921 156.810440,262.065704 156.862915,262.220581 
	C163.999542,283.282318 180.035675,293.076202 202.236557,290.543304 
	C222.120255,288.274780 236.474869,278.866882 244.359070,260.128479 
	C245.928970,256.397339 248.133286,252.933090 250.045059,249.345764 
	C250.522385,249.504471 250.999710,249.663162 251.477036,249.821869 
	C247.225052,270.132996 242.973053,290.444092 238.630508,311.187775 
	C236.063354,311.187775 233.763290,311.215057 231.464050,311.182922 
	C222.723587,311.060730 215.179642,314.415558 208.532745,319.680176 
	C202.546448,324.421600 196.966537,329.676086 190.958633,334.958984 
z"/>
<path fill="#F6D5B8" opacity="1.000000" stroke="none" 
	d="
M291.449005,272.624390 
	C282.414368,264.854218 277.953979,255.114899 276.454956,243.820984 
	C275.138855,233.905426 278.394745,229.085373 288.186798,227.014786 
	C300.386505,224.435043 312.697144,224.480011 324.918427,226.540695 
	C332.262787,227.779053 339.506531,229.748871 346.669647,231.824295 
	C348.283752,232.291977 350.506165,234.558502 350.518524,236.013367 
	C350.590332,244.447357 350.928650,253.026962 349.551300,261.286255 
	C347.990051,270.648071 341.795166,276.968719 332.292877,279.300354 
	C317.899658,282.832062 304.270721,281.157196 291.449005,272.624390 
M311.285614,253.863235 
	C314.839447,250.707993 315.864288,246.942505 313.510162,242.717209 
	C311.630096,239.342712 308.303192,237.405579 304.740265,238.704178 
	C302.119598,239.659332 298.875916,242.117950 298.263977,244.509048 
	C297.590607,247.140030 298.845551,251.069000 300.644287,253.333008 
	C303.124847,256.455200 307.072235,256.305084 311.285614,253.863235 
z"/>
<path fill="#F6D5B9" opacity="1.000000" stroke="none" 
	d="
M166.065094,235.412659 
	C167.293732,233.623856 168.231583,231.519363 169.718735,231.005920 
	C188.317780,224.584702 207.334595,222.925980 226.667191,227.007721 
	C235.717484,228.918533 238.522598,232.896164 238.073898,242.098602 
	C236.707108,270.130829 208.161179,288.369507 182.057663,277.926025 
	C174.032898,274.715485 168.478729,268.957458 167.204895,260.561493 
	C165.973801,252.447113 166.356049,244.087982 166.065094,235.412659 
M204.368179,237.686600 
	C197.566528,238.365509 193.801102,242.865829 195.401520,248.403259 
	C196.560364,252.412857 200.449219,255.336945 204.379700,254.796051 
	C208.535583,254.224121 211.430283,251.963547 212.122925,247.593231 
	C212.889145,242.758652 210.631790,239.641342 204.368179,237.686600 
z"/>
<path fill="#F4D4B7" opacity="1.000000" stroke="none" 
	d="
M248.460388,382.563477 
	C231.580566,381.112732 216.268433,376.808533 203.626617,365.532074 
	C202.757889,364.757172 201.916656,363.946381 201.118057,363.099976 
	C200.672043,362.627258 200.340225,362.046783 199.870544,361.395020 
	C205.783783,350.149139 215.855194,344.759766 227.611053,343.261688 
	C249.470825,340.476166 271.507904,340.365173 293.353516,343.348663 
	C298.561890,344.060028 303.434631,347.978241 308.213837,350.836121 
	C311.791077,352.975189 311.712036,355.564240 308.774170,358.883850 
	C292.783661,376.951935 272.579346,384.067352 248.460388,382.563477 
M281.002045,355.665497 
	C262.717590,358.676025 244.553574,357.702332 226.524033,353.786255 
	C222.745163,352.965485 219.180649,352.522614 218.098785,357.066864 
	C216.905350,362.079773 220.855713,363.343414 224.622269,363.901093 
	C233.980515,365.286652 243.388657,367.520447 252.751236,367.401672 
	C265.453033,367.240509 278.142944,365.309814 290.810974,363.896545 
	C294.049408,363.535248 295.775116,361.145966 295.115387,357.774628 
	C294.427155,354.257751 291.813324,353.461609 288.662872,353.988068 
	C286.372894,354.370758 284.115784,354.949951 281.002045,355.665497 
z"/>
<path fill="#F0D0B4" opacity="1.000000" stroke="none" 
	d="
M382.036377,250.164948 
	C380.858276,250.731979 379.569031,251.480988 378.839935,251.114777 
	C376.027588,249.702194 373.562225,247.497208 370.662231,246.379913 
	C362.322479,243.166779 359.314850,237.042038 360.315338,228.059830 
	C368.707611,233.224548 377.090088,238.383240 385.819641,243.755508 
	C384.511139,245.942535 383.346832,247.888611 382.036377,250.164948 
z"/>
<path fill="#F1D1B5" opacity="1.000000" stroke="none" 
	d="
M140.766022,246.697205 
	C145.880417,241.023300 150.771606,235.621658 156.623291,229.159286 
	C155.029144,239.021317 157.196014,248.664719 146.490036,254.323669 
	C144.770264,252.197052 142.656540,249.583267 140.766022,246.697205 
z"/>
<path fill="#312F2E" opacity="1.000000" stroke="none" 
	d="
M310.963898,254.058746 
	C307.072235,256.305084 303.124847,256.455200 300.644287,253.333008 
	C298.845551,251.069000 297.590607,247.140030 298.263977,244.509048 
	C298.875916,242.117950 302.119598,239.659332 304.740265,238.704178 
	C308.303192,237.405579 311.630096,239.342712 313.510162,242.717209 
	C315.864288,246.942505 314.839447,250.707993 310.963898,254.058746 
z"/>
<path fill="#2F2E2D" opacity="1.000000" stroke="none" 
	d="
M204.778290,237.737762 
	C210.631790,239.641342 212.889145,242.758652 212.122925,247.593231 
	C211.430283,251.963547 208.535583,254.224121 204.379700,254.796051 
	C200.449219,255.336945 196.560364,252.412857 195.401520,248.403259 
	C193.801102,242.865829 197.566528,238.365509 204.778290,237.737762 
z"/>
<path fill="#302F2E" opacity="1.000000" stroke="none" 
	d="
M281.423035,355.553528 
	C284.115784,354.949951 286.372894,354.370758 288.662872,353.988068 
	C291.813324,353.461609 294.427155,354.257751 295.115387,357.774628 
	C295.775116,361.145966 294.049408,363.535248 290.810974,363.896545 
	C278.142944,365.309814 265.453033,367.240509 252.751236,367.401672 
	C243.388657,367.520447 233.980515,365.286652 224.622269,363.901093 
	C220.855713,363.343414 216.905350,362.079773 218.098785,357.066864 
	C219.180649,352.522614 222.745163,352.965485 226.524033,353.786255 
	C244.553574,357.702332 262.717590,358.676025 281.423035,355.553528 
z"/>
</svg>